<svg width="66" height="55" viewBox="0 0 66 55" fill="none" xmlns="http://www.w3.org/2000/svg">
<path d="M43.9091 52.0909V46.6364C43.9091 43.7431 42.7597 40.9683 40.7139 38.9225C38.668 36.8766 35.8933 35.7273 33 35.7273H13.9091C11.0158 35.7273 8.24105 36.8766 6.1952 38.9225C4.14935 40.9683 3 43.7431 3 46.6364V52.0909" stroke="white" stroke-width="5" stroke-linecap="round" stroke-linejoin="round"/>
<path d="M23.4545 24.8182C29.4795 24.8182 34.3636 19.934 34.3636 13.9091C34.3636 7.88417 29.4795 3 23.4545 3C17.4296 3 12.5454 7.88417 12.5454 13.9091C12.5454 19.934 17.4296 24.8182 23.4545 24.8182Z" stroke="white" stroke-width="5" stroke-linecap="round" stroke-linejoin="round"/>
<path d="M46.6364 24.8182L52.0909 30.2727L63 19.3636" stroke="white" stroke-width="5" stroke-linecap="round" stroke-linejoin="round"/>
</svg>
