<svg width="33" height="33" viewBox="0 0 33 33" fill="none" xmlns="http://www.w3.org/2000/svg">
<path d="M16.5 31C24.5081 31 31 24.5081 31 16.5C31 8.49187 24.5081 2 16.5 2C8.49187 2 2 8.49187 2 16.5C2 24.5081 8.49187 31 16.5 31Z" stroke="white" stroke-width="3" stroke-linecap="round" stroke-linejoin="round"/>
<path d="M13 10.9065C13.3409 9.93741 14.0138 9.12024 14.8994 8.59973C15.7851 8.07922 16.8264 7.88895 17.8389 8.06262C18.8514 8.23629 19.7698 8.7627 20.4314 9.54861C21.0929 10.3345 21.455 11.3292 21.4535 12.3565C21.4535 15.2565 17.1035 16.7065 17.1035 16.7065" stroke="white" stroke-width="3" stroke-linecap="round" stroke-linejoin="round"/>
<path d="M16.5 23.75H16.514" stroke="white" stroke-width="3" stroke-linecap="round" stroke-linejoin="round"/>
</svg>
