<svg width="107" height="106" viewBox="0 0 107 106" fill="none" xmlns="http://www.w3.org/2000/svg">
<path d="M100.434 27.9629C99.5869 26.8447 98.3931 25.9868 96.8542 25.3877C96.9364 26.7859 96.8359 27.9241 96.5526 28.8033L78.358 87.9204C78.0339 88.9585 77.3258 89.787 76.2354 90.4061C75.1433 91.0256 74.0115 91.335 72.8389 91.335H16.86C12.0082 91.335 9.09746 89.9395 8.12666 87.1423C7.72241 86.064 7.7428 85.2062 8.18784 84.5671C8.63224 83.9678 9.40038 83.6675 10.4927 83.6675H63.1968C66.9572 83.6675 69.5548 82.9784 70.9903 81.6007C72.427 80.223 73.8719 77.1579 75.3267 72.4067L91.9446 18.14C92.8338 15.1853 92.4701 12.5895 90.8525 10.3539C89.2348 8.1184 86.9306 7 83.9383 7H37.7849C37.2594 7 36.228 7.17916 34.6915 7.53875L34.7519 7.35854C33.6196 7.11937 32.6592 7.00986 31.8709 7.02895C31.0828 7.04972 30.3548 7.27902 29.6878 7.71896C29.0208 8.15826 28.4846 8.62694 28.0805 9.12583C27.6763 9.62513 27.2816 10.2642 26.8977 11.0425C26.5143 11.8219 26.1903 12.5408 25.9276 13.1996C25.6648 13.8583 25.3612 14.5576 25.0182 15.2971C24.674 16.0358 24.3414 16.6446 24.0176 17.1235C23.7748 17.443 23.4317 17.8622 22.9865 18.3814C22.5423 18.9005 22.1782 19.3599 21.8952 19.7591C21.6125 20.1584 21.43 20.5178 21.3497 20.8375C21.2694 21.1964 21.3094 21.7255 21.471 22.4248C21.6325 23.123 21.6934 23.6317 21.6524 23.9514C21.491 25.4686 20.9349 27.395 19.9851 29.7316C19.0353 32.0679 18.1752 33.7554 17.4073 34.7931C17.2456 34.9924 16.8012 35.4417 16.0732 36.1408C15.3452 36.8394 14.9006 37.4478 14.7394 37.9668C14.5775 38.1663 14.5673 38.7256 14.7088 39.6439C14.8503 40.5628 14.9014 41.2012 14.8607 41.5606C14.6982 42.9185 14.1936 44.7152 13.3441 46.9516C12.4946 49.1873 11.646 51.0245 10.7965 52.4618C10.6756 52.7012 10.3323 53.16 9.76555 53.8395C9.20006 54.5186 8.85572 55.0777 8.73463 55.5157C8.65391 55.8352 8.66453 56.3943 8.76522 57.1928C8.8657 57.9913 8.85572 58.59 8.73463 58.989C8.41153 60.5054 7.80483 62.3331 6.91518 64.4699C6.02574 66.6051 5.1159 68.4341 4.18525 69.9499C3.94351 70.3497 3.60914 70.8194 3.18514 71.3578C2.76049 71.8961 2.42719 72.3658 2.18438 72.7648C1.942 73.1641 1.78013 73.5832 1.6992 74.0228C1.65883 74.2626 1.72001 74.6517 1.88167 75.1915C2.04312 75.7298 2.10409 76.1591 2.06309 76.4796C2.0223 77.0381 1.942 77.7776 1.82071 78.6965C1.6992 79.6139 1.63823 80.1523 1.63823 80.3117C0.748789 82.7084 0.788725 85.2441 1.75974 87.9207C2.89198 91.0336 4.90305 93.6606 7.794 95.7965C10.6852 97.9332 13.6868 99 16.8006 99H72.7801C75.4072 99 77.8839 98.1312 80.2089 96.3952C82.5337 94.6579 84.0809 92.5126 84.8477 89.9554L101.526 35.6901C102.416 32.8143 102.053 30.2389 100.434 27.9629ZM35.9043 28.0827L37.1782 24.2489C37.3397 23.7299 37.673 23.2807 38.1786 22.9014C38.6841 22.5227 39.1999 22.3325 39.7255 22.3325H76.6008C77.1665 22.3325 77.5705 22.5219 77.8134 22.9014C78.0555 23.2809 78.097 23.7299 77.9355 24.2489L76.6605 28.0827C76.4982 28.6019 76.1662 29.05 75.6593 29.4304C75.1533 29.809 74.6386 29.9985 74.1133 29.9985H37.239C36.6727 29.9985 36.2686 29.8097 36.0258 29.4304C35.7832 29.05 35.7429 28.6019 35.9043 28.0827ZM30.8708 43.4162L32.1445 39.583C32.306 39.064 32.6397 38.6149 33.1448 38.2356C33.6504 37.856 34.1656 37.6666 34.6918 37.6666H71.5658C72.1322 37.6666 72.537 37.8554 72.7792 38.2356C73.0214 38.6151 73.062 39.064 72.8999 39.583L71.6261 43.4162C71.4649 43.9352 71.1312 44.3848 70.626 44.7637C70.1198 45.1432 69.6053 45.3326 69.0789 45.3326H32.2048C31.6389 45.3326 31.2347 45.1438 30.9923 44.7637C30.7493 44.3848 30.7091 43.9352 30.8708 43.4162Z" fill="#222222"/>
</svg>
