<svg width="155" height="27" viewBox="0 0 155 27" fill="none" xmlns="http://www.w3.org/2000/svg">
<path d="M51.044 13.43H54.194L53.132 18.74C52.484 19.232 51.728 19.61 50.864 19.874C50.012 20.126 49.112 20.252 48.164 20.252C46.892 20.252 45.776 20.024 44.816 19.568C43.868 19.1 43.13 18.446 42.602 17.606C42.086 16.766 41.828 15.8 41.828 14.708C41.828 13.256 42.164 11.96 42.836 10.82C43.508 9.668 44.45 8.768 45.662 8.12C46.874 7.472 48.266 7.148 49.838 7.148C52.334 7.148 54.164 7.922 55.328 9.47L52.772 11.486C52.364 10.982 51.914 10.628 51.422 10.424C50.93 10.208 50.348 10.1 49.676 10.1C48.824 10.1 48.074 10.292 47.426 10.676C46.79 11.048 46.298 11.564 45.95 12.224C45.602 12.884 45.428 13.634 45.428 14.474C45.428 15.338 45.71 16.028 46.274 16.544C46.838 17.048 47.63 17.3 48.65 17.3C49.262 17.3 49.82 17.198 50.324 16.994L51.044 13.43ZM59.7656 10.226H55.8956L56.4716 7.4H67.7576L67.1816 10.226H63.3296L61.3676 20H57.8036L59.7656 10.226ZM75.0045 17.552H69.6405L68.1825 20H64.4205L72.5025 7.4H76.0125L79.0545 20H75.5085L75.0045 17.552ZM74.4645 14.924L73.6185 10.838L71.2065 14.924H74.4645ZM80.4907 13.556H85.7287L85.2067 16.184H79.9687L80.4907 13.556ZM97.5853 13.502C98.1253 13.742 98.5393 14.078 98.8273 14.51C99.1273 14.93 99.2773 15.428 99.2773 16.004C99.2773 17.312 98.7433 18.308 97.6753 18.992C96.6073 19.664 95.2153 20 93.4993 20H86.5693L89.0893 7.4H95.4613C96.8773 7.4 97.9573 7.658 98.7013 8.174C99.4573 8.678 99.8353 9.404 99.8353 10.352C99.8353 11.084 99.6373 11.72 99.2413 12.26C98.8453 12.788 98.2933 13.202 97.5853 13.502ZM92.0953 9.974L91.6093 12.404H94.1653C94.8013 12.404 95.2813 12.284 95.6053 12.044C95.9413 11.792 96.1093 11.432 96.1093 10.964C96.1093 10.304 95.6113 9.974 94.6153 9.974H92.0953ZM93.6973 17.426C94.3333 17.426 94.8313 17.3 95.1913 17.048C95.5513 16.796 95.7313 16.424 95.7313 15.932C95.7313 15.572 95.5993 15.308 95.3353 15.14C95.0713 14.96 94.7113 14.87 94.2553 14.87H91.1053L90.6013 17.426H93.6973ZM107.207 20.252C105.935 20.252 104.825 20.018 103.877 19.55C102.941 19.082 102.215 18.428 101.699 17.588C101.195 16.748 100.943 15.788 100.943 14.708C100.943 13.268 101.273 11.972 101.933 10.82C102.605 9.668 103.535 8.768 104.723 8.12C105.923 7.472 107.285 7.148 108.809 7.148C110.081 7.148 111.185 7.382 112.121 7.85C113.069 8.318 113.795 8.972 114.299 9.812C114.815 10.652 115.073 11.612 115.073 12.692C115.073 14.132 114.737 15.428 114.065 16.58C113.405 17.732 112.475 18.632 111.275 19.28C110.087 19.928 108.731 20.252 107.207 20.252ZM107.513 17.3C108.305 17.3 109.001 17.102 109.601 16.706C110.201 16.31 110.663 15.782 110.987 15.122C111.311 14.45 111.473 13.712 111.473 12.908C111.473 12.056 111.209 11.378 110.681 10.874C110.165 10.358 109.439 10.1 108.503 10.1C107.711 10.1 107.015 10.298 106.415 10.694C105.815 11.09 105.353 11.624 105.029 12.296C104.705 12.956 104.543 13.688 104.543 14.492C104.543 15.344 104.801 16.028 105.317 16.544C105.845 17.048 106.577 17.3 107.513 17.3ZM122.43 20.252C121.158 20.252 120.048 20.018 119.1 19.55C118.164 19.082 117.438 18.428 116.922 17.588C116.418 16.748 116.166 15.788 116.166 14.708C116.166 13.268 116.496 11.972 117.156 10.82C117.828 9.668 118.758 8.768 119.946 8.12C121.146 7.472 122.508 7.148 124.032 7.148C125.304 7.148 126.408 7.382 127.344 7.85C128.292 8.318 129.018 8.972 129.522 9.812C130.038 10.652 130.296 11.612 130.296 12.692C130.296 14.132 129.96 15.428 129.288 16.58C128.628 17.732 127.698 18.632 126.498 19.28C125.31 19.928 123.954 20.252 122.43 20.252ZM122.736 17.3C123.528 17.3 124.224 17.102 124.824 16.706C125.424 16.31 125.886 15.782 126.21 15.122C126.534 14.45 126.696 13.712 126.696 12.908C126.696 12.056 126.432 11.378 125.904 10.874C125.388 10.358 124.662 10.1 123.726 10.1C122.934 10.1 122.238 10.298 121.638 10.694C121.038 11.09 120.576 11.624 120.252 12.296C119.928 12.956 119.766 13.688 119.766 14.492C119.766 15.344 120.024 16.028 120.54 16.544C121.068 17.048 121.8 17.3 122.736 17.3ZM135.547 20.252C134.503 20.252 133.513 20.126 132.577 19.874C131.641 19.622 130.879 19.298 130.291 18.902L131.695 16.238C132.331 16.646 133.009 16.958 133.729 17.174C134.449 17.378 135.169 17.48 135.889 17.48C136.573 17.48 137.101 17.384 137.473 17.192C137.857 16.988 138.049 16.712 138.049 16.364C138.049 16.064 137.875 15.83 137.527 15.662C137.191 15.494 136.663 15.314 135.943 15.122C135.127 14.906 134.449 14.69 133.909 14.474C133.369 14.246 132.901 13.904 132.505 13.448C132.121 12.992 131.929 12.392 131.929 11.648C131.929 10.748 132.175 9.962 132.667 9.29C133.159 8.606 133.861 8.078 134.773 7.706C135.685 7.334 136.753 7.148 137.977 7.148C138.877 7.148 139.717 7.244 140.497 7.436C141.277 7.616 141.949 7.88 142.513 8.228L141.217 10.874C140.725 10.562 140.179 10.328 139.579 10.172C138.991 10.004 138.385 9.92 137.761 9.92C137.053 9.92 136.495 10.034 136.087 10.262C135.691 10.49 135.493 10.784 135.493 11.144C135.493 11.456 135.667 11.696 136.015 11.864C136.363 12.032 136.903 12.212 137.635 12.404C138.451 12.608 139.123 12.818 139.651 13.034C140.191 13.25 140.653 13.58 141.037 14.024C141.421 14.468 141.613 15.05 141.613 15.77C141.613 16.658 141.361 17.444 140.857 18.128C140.365 18.8 139.657 19.322 138.733 19.694C137.821 20.066 136.759 20.252 135.547 20.252ZM146.953 10.226H143.083L143.659 7.4H154.945L154.369 10.226H150.517L148.555 20H144.991L146.953 10.226Z" fill="#222222"/>
<path d="M26 24C31.5228 24 36 19.5228 36 14C36 8.47715 31.5228 4 26 4C20.4772 4 16 8.47715 16 14C16 19.5228 20.4772 24 26 24Z" stroke="#222222" stroke-width="3" stroke-linecap="round" stroke-linejoin="round"/>
<path d="M26 8V14L30 16" stroke="#222222" stroke-width="3" stroke-linecap="round" stroke-linejoin="round"/>
<path d="M19 6H6C5.44772 6 5 6.44772 5 7C5 7.55228 5.44772 8 6 8H19V6Z" fill="#222222"/>
<path d="M17 11H1C0.447716 11 0 11.4477 0 12C0 12.5523 0.447716 13 1 13H17V11Z" fill="#222222"/>
<rect width="7" height="2" rx="1" transform="matrix(-1 0 0 1 14 22)" fill="#222222"/>
<path d="M17 17H3C2.44771 17 2 17.4477 2 18C2 18.5523 2.44772 19 3 19H17V17Z" fill="#222222"/>
</svg>
