<?xml version="1.0" encoding="utf-8"?><svg viewBox="0 0 130 110" xmlns="http://www.w3.org/2000/svg" xmlns:xlink="http://www.w3.org/1999/xlink"><style>:root>svg{display:none}:root>svg:target{display:block}</style><svg fill="none" viewBox="0 0 107 106" id="f1" xmlns="http://www.w3.org/2000/svg"><path d="M100.434 27.963c-.847-1.118-2.04-1.976-3.58-2.575.082 1.398-.018 2.536-.301 3.415L78.358 87.92c-.324 1.038-1.032 1.867-2.123 2.486-1.092.62-2.224.929-3.396.929H16.86c-4.852 0-7.763-1.395-8.733-4.193-.405-1.078-.384-1.936.06-2.575.445-.6 1.213-.9 2.306-.9h52.704c3.76 0 6.358-.689 7.793-2.066 1.437-1.378 2.882-4.443 4.337-9.194L91.945 18.14c.889-2.955.525-5.55-1.092-7.786C89.235 8.118 86.93 7 83.938 7H37.785c-.526 0-1.557.18-3.093.539l.06-.18c-1.132-.24-2.093-.35-2.881-.33-.788.02-1.516.25-2.183.69-.667.44-1.203.908-1.607 1.407-.405.5-.8 1.138-1.183 1.917-.384.779-.708 1.498-.97 2.157a41.997 41.997 0 01-.91 2.097c-.344.739-.677 1.348-1 1.826-.243.32-.586.74-1.032 1.258-.444.52-.808.979-1.09 1.378-.284.4-.466.759-.546 1.078-.08.36-.04.889.121 1.588.162.698.222 1.207.181 1.526-.161 1.518-.717 3.444-1.667 5.78-.95 2.337-1.81 4.024-2.578 5.062-.161.2-.606.649-1.334 1.348-.728.698-1.172 1.307-1.334 1.826-.162.2-.172.759-.03 1.677.141.919.192 1.557.152 1.917-.163 1.358-.667 3.154-1.517 5.39-.85 2.236-1.698 4.074-2.547 5.51-.121.24-.465.699-1.031 1.379-.566.679-.91 1.238-1.031 1.676-.081.32-.07.878.03 1.677.1.798.09 1.397-.03 1.796-.323 1.516-.93 3.344-1.82 5.48-.89 2.136-1.8 3.965-2.73 5.48-.241.4-.576.87-1 1.409a14.614 14.614 0 00-1 1.407 3.7 3.7 0 00-.486 1.258c-.04.24.021.629.183 1.169.161.538.222.967.181 1.288a39.97 39.97 0 01-.242 2.216c-.122.918-.183 1.456-.183 1.616-.89 2.396-.85 4.932.122 7.609 1.132 3.113 3.143 5.74 6.034 7.875C10.685 97.933 13.687 99 16.801 99h55.98c2.626 0 5.103-.869 7.428-2.605 2.325-1.737 3.872-3.882 4.639-6.44l16.678-54.265c.89-2.876.527-5.451-1.092-7.727zm-64.53.12l1.274-3.834c.162-.52.495-.968 1-1.348.506-.378 1.022-.569 1.547-.569h36.876c.566 0 .97.19 1.212.57.242.379.284.828.123 1.347l-1.276 3.834c-.162.519-.494.967-1 1.347-.507.379-1.021.569-1.547.569H37.24c-.566 0-.97-.19-1.213-.569-.243-.38-.283-.828-.122-1.347zm-5.033 15.333l1.274-3.833c.161-.519.495-.968 1-1.347.505-.38 1.02-.57 1.547-.57h36.874c.566 0 .971.19 1.213.57.242.38.283.828.12 1.347l-1.273 3.833c-.161.52-.495.969-1 1.348-.506.38-1.02.569-1.547.569H32.205c-.566 0-.97-.19-1.213-.57-.243-.378-.283-.828-.121-1.347z" fill="#fff"/></svg><svg fill="none" viewBox="0 0 105 105" id="f2" xmlns="http://www.w3.org/2000/svg"><path d="M52.5 98.244c25.43 0 46.046-20.615 46.046-46.046S77.931 6.15 52.5 6.15c-25.43 0-46.047 20.616-46.047 46.047 0 25.43 20.616 46.046 46.047 46.046z" stroke="#fff" stroke-width="12" stroke-linecap="round" stroke-linejoin="round"/><path d="M52.5 24.57v27.628l18.419 9.209" stroke="#fff" stroke-width="12" stroke-linecap="round" stroke-linejoin="round"/></svg><svg fill="none" viewBox="0 0 58 110" id="f3" xmlns="http://www.w3.org/2000/svg"><path d="M56.484 66.613c-.525-1.778-1.162-3.325-1.91-4.639-.748-1.315-1.819-2.598-3.215-3.852-1.394-1.255-2.649-2.265-3.76-3.032-1.112-.769-2.64-1.628-4.58-2.58-1.94-.95-3.478-1.657-4.609-2.123a199.725 199.725 0 00-4.915-1.91c-1.9-.728-3.316-1.284-4.247-1.668-.93-.384-2.153-.93-3.67-1.638-1.515-.707-2.648-1.334-3.396-1.88a26.678 26.678 0 01-2.396-2.001c-.85-.788-1.446-1.628-1.79-2.517-.343-.89-.515-1.86-.515-2.912 0-2.75 1.213-4.995 3.64-6.733 2.426-1.738 5.56-2.608 9.402-2.608 1.698 0 3.429.232 5.187.698 1.758.465 3.264.99 4.518 1.576a31.376 31.376 0 013.55 1.942c1.112.708 1.9 1.243 2.365 1.607.465.364.76.607.88.728.527.404 1.071.546 1.637.425.607-.04 1.072-.365 1.397-.97l4.914-8.857c.485-.808.385-1.577-.303-2.305a20.802 20.802 0 00-.912-.85c-.363-.323-1.152-.91-2.366-1.759a29.282 29.282 0 00-3.85-2.275c-1.356-.666-3.116-1.344-5.28-2.031a33.646 33.646 0 00-6.702-1.395V2.377c0-.566-.182-1.031-.545-1.395-.364-.363-.829-.546-1.396-.546h-8.19c-.525 0-.98.192-1.364.576a1.866 1.866 0 00-.576 1.365v10.919c-6.35 1.213-11.506 3.922-15.469 8.128-3.963 4.206-5.945 9.098-5.945 14.68 0 1.657.173 3.234.517 4.73.343 1.497.768 2.841 1.274 4.034.505 1.194 1.223 2.366 2.153 3.519a37.68 37.68 0 002.639 2.972c.829.828 1.91 1.688 3.245 2.577a62.115 62.115 0 003.428 2.154c.95.544 2.214 1.173 3.79 1.88 1.578.707 2.822 1.243 3.732 1.607.91.364 2.153.87 3.73 1.516 2.184.849 3.802 1.506 4.853 1.972 1.052.465 2.387 1.112 4.005 1.94 1.617.829 2.8 1.588 3.548 2.275.748.688 1.425 1.537 2.032 2.548.608 1.01.912 2.082.912 3.215 0 3.195-1.244 5.661-3.732 7.399-2.486 1.74-5.369 2.609-8.644 2.609-1.495 0-2.992-.161-4.488-.485-5.257-1.052-10.17-3.58-14.74-7.583l-.121-.121c-.365-.444-.85-.626-1.456-.545-.647.08-1.112.324-1.395.729l-6.248 8.188c-.607.809-.566 1.638.121 2.487.203.243.556.608 1.062 1.092.506.486 1.447 1.243 2.82 2.276a40.873 40.873 0 004.49 2.912c1.617.91 3.67 1.81 6.157 2.7a38.296 38.296 0 007.734 1.878v10.616c0 .526.192.98.576 1.365.384.385.84.576 1.365.576h8.19c.566 0 1.032-.182 1.395-.545.364-.364.545-.829.545-1.396V96.579c6.431-1.05 11.658-3.811 15.681-8.28 4.024-4.468 6.036-9.796 6.036-15.983-.002-2.022-.264-3.922-.795-5.703z" fill="#fff"/></svg><svg fill="none" viewBox="0 0 95 84" id="f4" xmlns="http://www.w3.org/2000/svg"><path d="M93.917 29.083c-.366-.369-.835-.553-1.408-.553H65.578c3.794 0 7.028-1.342 9.702-4.027 2.672-2.684 4.008-5.932 4.008-9.744 0-3.812-1.336-7.06-4.008-9.744C72.606 2.33 69.372.988 65.578.988c-4.366 0-7.794 1.578-10.283 4.734L47.46 15.865 39.627 5.722C37.137 2.566 33.71.988 29.343.988c-3.795 0-7.029 1.342-9.701 4.027-2.672 2.684-4.009 5.932-4.009 9.744 0 3.812 1.336 7.06 4.009 9.744s5.906 4.027 9.701 4.027H2.412c-.572 0-1.04.184-1.408.553-.367.37-.55.84-.55 1.414v19.674c0 .573.183 1.045.55 1.413.367.368.837.552 1.408.552h5.876v25.576c0 1.64.571 3.033 1.714 4.18 1.142 1.148 2.53 1.72 4.162 1.72h66.593c1.633 0 3.02-.572 4.163-1.72 1.141-1.148 1.714-2.541 1.714-4.18V52.136h5.873c.572 0 1.042-.184 1.409-.552.367-.369.55-.84.55-1.413V30.497c0-.573-.182-1.045-.549-1.414zm-32.562-18.32c1.06-1.27 2.468-1.905 4.223-1.905 1.633 0 3.02.573 4.163 1.72 1.141 1.148 1.712 2.541 1.712 4.18 0 1.64-.572 3.034-1.712 4.181-1.143 1.148-2.53 1.721-4.163 1.721H53.703l7.652-9.897zM29.343 20.66c-1.633 0-3.02-.573-4.164-1.72-1.142-1.148-1.713-2.541-1.713-4.18 0-1.64.57-3.034 1.713-4.181 1.143-1.148 2.53-1.721 4.163-1.721 1.755 0 3.163.634 4.224 1.905l7.712 9.897H29.343zm27.911 19.674v32.213c0 1.025-.368 1.814-1.102 2.368-.735.553-1.674.83-2.815.83H41.585c-1.143 0-2.081-.277-2.816-.83-.735-.554-1.102-1.343-1.102-2.368V28.53h19.587v11.803z" fill="#fff"/></svg><svg fill="none" viewBox="0 0 90 83" id="f5" xmlns="http://www.w3.org/2000/svg"><path d="M66.818 67.05c0 2.904-1.15 5.69-3.195 7.743A10.889 10.889 0 0155.909 78a10.889 10.889 0 01-7.714-3.207A10.97 10.97 0 0145 67.05V41.5m40 0a40.386 40.386 0 00-12.97-26.011A40.098 40.098 0 0045 5a40.098 40.098 0 00-27.03 10.489A40.386 40.386 0 005 41.5h80z" stroke="#fff" stroke-width="10" stroke-linecap="round" stroke-linejoin="round"/></svg><svg fill="none" viewBox="0 0 51 60" id="hf1" xmlns="http://www.w3.org/2000/svg"><path d="M37.647 3l9.898 9.899-9.898 9.899" stroke="#fff" stroke-width="5" stroke-linecap="round" stroke-linejoin="round"/><path d="M3 27.747v-4.949a9.899 9.899 0 019.899-9.899h34.646M12.899 57.444L3 47.545l9.899-9.898" stroke="#fff" stroke-width="5" stroke-linecap="round" stroke-linejoin="round"/><path d="M47.545 32.697v4.95a9.899 9.899 0 01-9.898 9.898H3" stroke="#fff" stroke-width="5" stroke-linecap="round" stroke-linejoin="round"/></svg><svg fill="none" viewBox="0 0 66 55" id="hf2" xmlns="http://www.w3.org/2000/svg"><path d="M43.91 52.09v-5.454A10.91 10.91 0 0033 35.727H13.91A10.909 10.909 0 003 46.637v5.454M23.454 24.818c6.026 0 10.91-4.884 10.91-10.909S29.48 3 23.454 3C17.43 3 12.545 7.884 12.545 13.91c0 6.024 4.885 10.908 10.91 10.908zM46.636 24.818l5.455 5.455L63 19.363" stroke="#fff" stroke-width="5" stroke-linecap="round" stroke-linejoin="round"/></svg><svg fill="none" viewBox="0 0 58 58" id="hf3" xmlns="http://www.w3.org/2000/svg"><path d="M28.914 54.827c14.311 0 25.913-11.602 25.913-25.913C54.827 14.602 43.225 3 28.914 3 14.602 3 3 14.602 3 28.914c0 14.311 11.602 25.913 25.914 25.913z" stroke="#fff" stroke-width="5" stroke-linecap="round" stroke-linejoin="round"/><path d="M28.914 13.365v15.549l10.365 5.182" stroke="#fff" stroke-width="5" stroke-linecap="round" stroke-linejoin="round"/></svg><svg fill="none" viewBox="0 0 130 27" id="logo" xmlns="http://www.w3.org/2000/svg"><path d="M51.044 13.43h3.15l-1.062 5.31a7.183 7.183 0 01-2.268 1.134 9.472 9.472 0 01-2.7.378c-1.272 0-2.388-.228-3.348-.684-.948-.468-1.686-1.122-2.214-1.962-.516-.84-.774-1.806-.774-2.898 0-1.452.336-2.748 1.008-3.888.672-1.152 1.614-2.052 2.826-2.7 1.212-.648 2.604-.972 4.176-.972 2.496 0 4.326.774 5.49 2.322l-2.556 2.016c-.408-.504-.858-.858-1.35-1.062-.492-.216-1.074-.324-1.746-.324-.852 0-1.602.192-2.25.576a3.821 3.821 0 00-1.476 1.548c-.348.66-.522 1.41-.522 2.25 0 .864.282 1.554.846 2.07.564.504 1.356.756 2.376.756.612 0 1.17-.102 1.674-.306l.72-3.564zm8.722-3.204h-3.87l.576-2.826h11.286l-.576 2.826H63.33L61.368 20h-3.564l1.962-9.774zm15.238 7.326H69.64L68.184 20H64.42l8.082-12.6h3.51L79.056 20h-3.547l-.504-2.448zm-.54-2.628l-.846-4.086-2.411 4.086h3.258zm11.145-4.77l-.558 2.772h5.562l-.558 2.754H84.51L83.647 20h-3.564l2.52-12.6h9.864l-.558 2.754h-6.3zm14.603 7.398h-5.364L93.39 20h-3.762L97.71 7.4h3.51l3.042 12.6h-3.546l-.504-2.448zm-.54-2.628l-.846-4.086-2.412 4.086h3.258zm10.316 5.328a11.38 11.38 0 01-2.97-.378c-.936-.252-1.698-.576-2.286-.972l1.404-2.664c.636.408 1.314.72 2.034.936.72.204 1.44.306 2.16.306.684 0 1.212-.096 1.584-.288.384-.204.576-.48.576-.828 0-.3-.174-.534-.522-.702-.336-.168-.864-.348-1.584-.54a17.992 17.992 0 01-2.034-.648 3.797 3.797 0 01-1.404-1.026c-.384-.456-.576-1.056-.576-1.8 0-.9.246-1.686.738-2.358.492-.684 1.194-1.212 2.106-1.584.912-.372 1.98-.558 3.204-.558.9 0 1.74.096 2.52.288.78.18 1.452.444 2.016.792l-1.296 2.646a5.727 5.727 0 00-1.638-.702 6.585 6.585 0 00-1.818-.252c-.708 0-1.266.114-1.674.342-.396.228-.594.522-.594.882 0 .312.174.552.522.72.348.168.888.348 1.62.54.816.204 1.488.414 2.016.63.54.216 1.002.546 1.386.99.384.444.576 1.026.576 1.746 0 .888-.252 1.674-.756 2.358-.492.672-1.2 1.194-2.124 1.566-.912.372-1.974.558-3.186.558zm11.406-10.026h-3.87L118.1 7.4h11.286l-.576 2.826h-3.852L122.996 20h-3.564l1.962-9.774z" fill="#fff"/><path d="M26 24c5.523 0 10-4.477 10-10S31.523 4 26 4 16 8.477 16 14s4.477 10 10 10z" stroke="#fff" stroke-width="3" stroke-linecap="round" stroke-linejoin="round"/><path d="M26 8v6l4 2" stroke="#fff" stroke-width="3" stroke-linecap="round" stroke-linejoin="round"/><path d="M19 6H6a1 1 0 000 2h13V6zM17 11H1a1 1 0 100 2h16v-2z" fill="#fff"/><rect width="7" height="2" rx="1" transform="matrix(-1 0 0 1 14 22)" fill="#fff"/><path d="M17 17H3a1 1 0 100 2h14v-2z" fill="#fff"/></svg><svg fill="none" viewBox="0 0 33 33" id="que" xmlns="http://www.w3.org/2000/svg"><path d="M16.5 31C24.508 31 31 24.508 31 16.5S24.508 2 16.5 2 2 8.492 2 16.5 8.492 31 16.5 31z" stroke="#fff" stroke-width="3" stroke-linecap="round" stroke-linejoin="round"/><path d="M13 10.906a4.35 4.35 0 018.453 1.45c0 2.9-4.35 4.35-4.35 4.35M16.5 23.75h.014" stroke="#fff" stroke-width="3" stroke-linecap="round" stroke-linejoin="round"/></svg></svg>