<svg width="58" height="110" viewBox="0 0 58 110" fill="none" xmlns="http://www.w3.org/2000/svg">
<path d="M56.4838 66.6131C55.9588 64.8355 55.3219 63.2883 54.5738 61.9744C53.8261 60.6593 52.7553 59.3764 51.3592 58.1216C49.9648 56.8674 48.7104 55.8574 47.5982 55.0895C46.4866 54.3211 44.9596 53.4619 43.0181 52.5109C41.0783 51.5601 39.5413 50.8526 38.41 50.3873C37.2771 49.9226 35.6384 49.2857 33.4948 48.4768C31.5944 47.7493 30.1793 47.1931 29.2483 46.8092C28.3184 46.4248 27.0954 45.8792 25.5789 45.1711C24.0629 44.464 22.9305 43.8368 22.1822 43.2912C21.4341 42.7456 20.6357 42.0785 19.7863 41.29C18.9368 40.5016 18.3405 39.6623 17.9965 38.7728C17.6533 37.883 17.4812 36.9122 17.4812 35.8607C17.4812 33.1115 18.694 30.8663 21.1203 29.128C23.5469 27.3896 26.6813 26.52 30.5233 26.52C32.2209 26.52 33.9516 26.7522 35.7096 27.2177C37.4675 27.6832 38.9741 28.2076 40.2278 28.7944C41.4826 29.3812 42.665 30.0284 43.7774 30.7357C44.8897 31.4436 45.6779 31.979 46.1434 32.343C46.6085 32.7071 46.9032 32.9496 47.0232 33.0711C47.5497 33.4754 48.0943 33.6167 48.6605 33.4958C49.2669 33.4554 49.7324 33.1314 50.0566 32.5255L54.9709 23.6691C55.4559 22.8607 55.3556 22.0922 54.6677 21.3639C54.4246 21.1213 54.1225 20.8385 53.756 20.5147C53.3931 20.1909 52.6042 19.6047 51.39 18.7551C50.1771 17.9061 48.8931 17.1478 47.5393 16.4804C46.184 15.8137 44.4244 15.136 42.2607 14.4489C40.0982 13.7607 37.8633 13.296 35.5577 13.0536V2.3771C35.5577 1.81131 35.376 1.34602 35.0131 0.981854C34.6494 0.618541 34.1841 0.436035 33.617 0.436035H25.4274C24.9018 0.436035 24.4469 0.62789 24.0627 1.01224C23.6786 1.39658 23.4865 1.85126 23.4865 2.3771V13.2958C17.1373 14.5086 11.9812 17.2181 8.01812 21.4238C4.05546 25.6298 2.07339 30.5222 2.07339 36.1034C2.07339 37.7612 2.24591 39.3383 2.58968 40.8339C2.93302 42.3307 3.35794 43.6754 3.86361 44.8681C4.36884 46.0617 5.08697 47.2341 6.01693 48.3869C6.94688 49.5393 7.82669 50.5303 8.65551 51.3589C9.48476 52.1873 10.5666 53.0469 11.9007 53.9363C13.2356 54.8265 14.378 55.5448 15.3286 56.0905C16.2793 56.6344 17.5429 57.2632 19.1196 57.9693C20.6967 58.6774 21.9406 59.2126 22.8506 59.5774C23.7606 59.9409 25.0039 60.447 26.5817 61.0927C28.7652 61.9419 30.3831 62.5993 31.4344 63.0646C32.4865 63.5299 33.8205 64.1768 35.4391 65.0059C37.0562 65.834 38.2385 66.5925 38.9872 67.2803C39.7353 67.968 40.4124 68.8172 41.0195 69.8279C41.6265 70.8386 41.9305 71.9103 41.9305 73.0431C41.9305 76.238 40.6869 78.7042 38.1992 80.4418C35.7125 82.1812 32.8303 83.0506 29.5551 83.0506C28.0602 83.0506 26.5628 82.8898 25.067 82.5664C19.8098 81.5136 14.8966 78.9862 10.327 74.9829L10.2056 74.8616C9.84148 74.418 9.356 74.2357 8.75006 74.3171C8.10289 74.3978 7.6376 74.6406 7.35481 75.0458L1.10668 83.2342C0.499883 84.0428 0.54089 84.8716 1.22821 85.7208C1.43069 85.9637 1.78444 86.3285 2.28968 86.8129C2.79619 87.2992 3.73655 88.0562 5.11077 89.0894C6.48541 90.1212 7.98179 91.0904 9.5997 92.0015C11.2174 92.911 13.2694 93.8104 15.7569 94.7004C18.2444 95.5889 20.8218 96.2155 23.491 96.5792V107.195C23.491 107.721 23.6833 108.175 24.0672 108.56C24.4515 108.945 24.9062 109.136 25.4318 109.136H33.6215C34.1885 109.136 34.6538 108.954 35.0174 108.591C35.3809 108.227 35.5619 107.762 35.5619 107.195V96.5794C41.993 95.5282 47.2198 92.768 51.243 88.2993C55.2666 83.8306 57.2791 78.5026 57.2791 72.3159C57.277 70.2943 57.0146 68.3936 56.4838 66.6131Z" fill="white"/>
</svg>
