<?xml version="1.0" encoding="utf-8"?><svg width="58" height="110" fill="none" xmlns="http://www.w3.org/2000/svg" viewBox="0 0 58 110"><path d="M56.484 66.613c-.525-1.778-1.162-3.325-1.91-4.639-.748-1.315-1.819-2.598-3.215-3.852-1.394-1.255-2.649-2.265-3.76-3.032-1.112-.769-2.64-1.628-4.58-2.58-1.94-.95-3.478-1.657-4.609-2.123a199.725 199.725 0 00-4.915-1.91c-1.9-.728-3.316-1.284-4.247-1.668-.93-.384-2.153-.93-3.67-1.638-1.515-.707-2.648-1.334-3.396-1.88a26.678 26.678 0 01-2.396-2.001c-.85-.788-1.446-1.628-1.79-2.517-.343-.89-.515-1.86-.515-2.912 0-2.75 1.213-4.995 3.64-6.733 2.426-1.738 5.56-2.608 9.402-2.608 1.698 0 3.429.232 5.187.698 1.758.465 3.264.99 4.518 1.576a31.376 31.376 0 013.55 1.942c1.112.708 1.9 1.243 2.365 1.607.465.364.76.607.88.728.527.404 1.071.546 1.637.425.607-.04 1.072-.365 1.397-.97l4.914-8.857c.485-.808.385-1.577-.303-2.305a20.802 20.802 0 00-.912-.85c-.363-.323-1.152-.91-2.366-1.759a29.282 29.282 0 00-3.85-2.275c-1.356-.666-3.116-1.344-5.28-2.031a33.646 33.646 0 00-6.702-1.395V2.377c0-.566-.182-1.031-.545-1.395-.364-.363-.829-.546-1.396-.546h-8.19c-.525 0-.98.192-1.364.576a1.866 1.866 0 00-.576 1.365v10.919c-6.35 1.213-11.506 3.922-15.469 8.128-3.963 4.206-5.945 9.098-5.945 14.68 0 1.657.173 3.234.517 4.73.343 1.497.768 2.841 1.274 4.034.505 1.194 1.223 2.366 2.153 3.519a37.68 37.68 0 002.639 2.972c.829.828 1.91 1.688 3.245 2.577a62.115 62.115 0 003.428 2.154c.95.544 2.214 1.173 3.79 1.88 1.578.707 2.822 1.243 3.732 1.607.91.364 2.153.87 3.73 1.516 2.184.849 3.802 1.506 4.853 1.972 1.052.465 2.387 1.112 4.005 1.94 1.617.829 2.8 1.588 3.548 2.275.748.688 1.425 1.537 2.032 2.548.608 1.01.912 2.082.912 3.215 0 3.195-1.244 5.661-3.732 7.399-2.486 1.74-5.369 2.609-8.644 2.609-1.495 0-2.992-.161-4.488-.485-5.257-1.052-10.17-3.58-14.74-7.583l-.121-.121c-.365-.444-.85-.626-1.456-.545-.647.08-1.112.324-1.395.729l-6.248 8.188c-.607.809-.566 1.638.121 2.487.203.243.556.608 1.062 1.092.506.486 1.447 1.243 2.82 2.276a40.873 40.873 0 004.49 2.912c1.617.91 3.67 1.81 6.157 2.7a38.296 38.296 0 007.734 1.878v10.616c0 .526.192.98.576 1.365.384.385.84.576 1.365.576h8.19c.566 0 1.032-.182 1.395-.545.364-.364.545-.829.545-1.396V96.579c6.431-1.05 11.658-3.811 15.681-8.28 4.024-4.468 6.036-9.796 6.036-15.983-.002-2.022-.264-3.922-.795-5.703z" fill="#fff"/></svg>