<?xml version="1.0" encoding="utf-8"?><svg width="130" height="27" fill="none" xmlns="http://www.w3.org/2000/svg" viewBox="0 0 130 27"><path d="M51.044 13.43h3.15l-1.062 5.31a7.183 7.183 0 01-2.268 1.134 9.472 9.472 0 01-2.7.378c-1.272 0-2.388-.228-3.348-.684-.948-.468-1.686-1.122-2.214-1.962-.516-.84-.774-1.806-.774-2.898 0-1.452.336-2.748 1.008-3.888.672-1.152 1.614-2.052 2.826-2.7 1.212-.648 2.604-.972 4.176-.972 2.496 0 4.326.774 5.49 2.322l-2.556 2.016c-.408-.504-.858-.858-1.35-1.062-.492-.216-1.074-.324-1.746-.324-.852 0-1.602.192-2.25.576a3.821 3.821 0 00-1.476 1.548c-.348.66-.522 1.41-.522 2.25 0 .864.282 1.554.846 2.07.564.504 1.356.756 2.376.756.612 0 1.17-.102 1.674-.306l.72-3.564zm8.722-3.204h-3.87l.576-2.826h11.286l-.576 2.826H63.33L61.368 20h-3.564l1.962-9.774zm15.238 7.326H69.64L68.184 20H64.42l8.082-12.6h3.51L79.056 20h-3.547l-.504-2.448zm-.54-2.628l-.846-4.086-2.411 4.086h3.258zm11.145-4.77l-.558 2.772h5.562l-.558 2.754H84.51L83.647 20h-3.564l2.52-12.6h9.864l-.558 2.754h-6.3zm14.603 7.398h-5.364L93.39 20h-3.762L97.71 7.4h3.51l3.042 12.6h-3.546l-.504-2.448zm-.54-2.628l-.846-4.086-2.412 4.086h3.258zm10.316 5.328a11.38 11.38 0 01-2.97-.378c-.936-.252-1.698-.576-2.286-.972l1.404-2.664c.636.408 1.314.72 2.034.936.72.204 1.44.306 2.16.306.684 0 1.212-.096 1.584-.288.384-.204.576-.48.576-.828 0-.3-.174-.534-.522-.702-.336-.168-.864-.348-1.584-.54a17.992 17.992 0 01-2.034-.648 3.797 3.797 0 01-1.404-1.026c-.384-.456-.576-1.056-.576-1.8 0-.9.246-1.686.738-2.358.492-.684 1.194-1.212 2.106-1.584.912-.372 1.98-.558 3.204-.558.9 0 1.74.096 2.52.288.78.18 1.452.444 2.016.792l-1.296 2.646a5.727 5.727 0 00-1.638-.702 6.585 6.585 0 00-1.818-.252c-.708 0-1.266.114-1.674.342-.396.228-.594.522-.594.882 0 .312.174.552.522.72.348.168.888.348 1.62.54.816.204 1.488.414 2.016.63.54.216 1.002.546 1.386.99.384.444.576 1.026.576 1.746 0 .888-.252 1.674-.756 2.358-.492.672-1.2 1.194-2.124 1.566-.912.372-1.974.558-3.186.558zm11.406-10.026h-3.87L118.1 7.4h11.286l-.576 2.826h-3.852L122.996 20h-3.564l1.962-9.774z" fill="#fff"/><path d="M26 24c5.523 0 10-4.477 10-10S31.523 4 26 4 16 8.477 16 14s4.477 10 10 10z" stroke="#fff" stroke-width="3" stroke-linecap="round" stroke-linejoin="round"/><path d="M26 8v6l4 2" stroke="#fff" stroke-width="3" stroke-linecap="round" stroke-linejoin="round"/><path d="M19 6H6a1 1 0 000 2h13V6zM17 11H1a1 1 0 100 2h16v-2z" fill="#fff"/><rect width="7" height="2" rx="1" transform="matrix(-1 0 0 1 14 22)" fill="#fff"/><path d="M17 17H3a1 1 0 100 2h14v-2z" fill="#fff"/></svg>