<?xml version="1.0" encoding="utf-8"?><svg width="107" height="106" fill="none" xmlns="http://www.w3.org/2000/svg" viewBox="0 0 107 106"><path d="M100.434 27.963c-.847-1.118-2.04-1.976-3.58-2.575.082 1.398-.018 2.536-.301 3.415L78.358 87.92c-.324 1.038-1.032 1.867-2.123 2.486-1.092.62-2.224.929-3.396.929H16.86c-4.852 0-7.763-1.395-8.733-4.193-.405-1.078-.384-1.936.06-2.575.445-.6 1.213-.9 2.306-.9h52.704c3.76 0 6.358-.689 7.793-2.066 1.437-1.378 2.882-4.443 4.337-9.194L91.945 18.14c.889-2.955.525-5.55-1.092-7.786C89.235 8.118 86.93 7 83.938 7H37.785c-.526 0-1.557.18-3.093.539l.06-.18c-1.132-.24-2.093-.35-2.881-.33-.788.02-1.516.25-2.183.69-.667.44-1.203.908-1.607 1.407-.405.5-.8 1.138-1.183 1.917-.384.779-.708 1.498-.97 2.157a41.997 41.997 0 01-.91 2.097c-.344.739-.677 1.348-1 1.826-.243.32-.586.74-1.032 1.258-.444.52-.808.979-1.09 1.378-.284.4-.466.759-.546 1.078-.08.36-.04.889.121 1.588.162.698.222 1.207.181 1.526-.161 1.518-.717 3.444-1.667 5.78-.95 2.337-1.81 4.024-2.578 5.062-.161.2-.606.649-1.334 1.348-.728.698-1.172 1.307-1.334 1.826-.162.2-.172.759-.03 1.677.141.919.192 1.557.152 1.917-.163 1.358-.667 3.154-1.517 5.39-.85 2.236-1.698 4.074-2.547 5.51-.121.24-.465.699-1.031 1.379-.566.679-.91 1.238-1.031 1.676-.081.32-.07.878.03 1.677.1.798.09 1.397-.03 1.796-.323 1.516-.93 3.344-1.82 5.48-.89 2.136-1.8 3.965-2.73 5.48-.241.4-.576.87-1 1.409a14.614 14.614 0 00-1 1.407 3.7 3.7 0 00-.486 1.258c-.04.24.021.629.183 1.169.161.538.222.967.181 1.288a39.97 39.97 0 01-.242 2.216c-.122.918-.183 1.456-.183 1.616-.89 2.396-.85 4.932.122 7.609 1.132 3.113 3.143 5.74 6.034 7.875C10.685 97.933 13.687 99 16.801 99h55.98c2.626 0 5.103-.869 7.428-2.605 2.325-1.737 3.872-3.882 4.639-6.44l16.678-54.265c.89-2.876.527-5.451-1.092-7.727zm-64.53.12l1.274-3.834c.162-.52.495-.968 1-1.348.506-.378 1.022-.569 1.547-.569h36.876c.566 0 .97.19 1.212.57.242.379.284.828.123 1.347l-1.276 3.834c-.162.519-.494.967-1 1.347-.507.379-1.021.569-1.547.569H37.24c-.566 0-.97-.19-1.213-.569-.243-.38-.283-.828-.122-1.347zm-5.033 15.333l1.274-3.833c.161-.519.495-.968 1-1.347.505-.38 1.02-.57 1.547-.57h36.874c.566 0 .971.19 1.213.57.242.38.283.828.12 1.347l-1.273 3.833c-.161.52-.495.969-1 1.348-.506.38-1.02.569-1.547.569H32.205c-.566 0-.97-.19-1.213-.57-.243-.378-.283-.828-.121-1.347z" fill="#fff"/></svg>