<svg width="95" height="84" viewBox="0 0 95 84" fill="none" xmlns="http://www.w3.org/2000/svg">
<path d="M93.9172 29.0828C93.551 28.7141 93.0817 28.5298 92.5087 28.5298H65.5779C69.3724 28.5298 72.6061 27.1883 75.2797 24.5034C77.9517 21.8187 79.2884 18.5708 79.2884 14.7591C79.2884 10.9474 77.9517 7.6994 75.2797 5.01472C72.6061 2.33068 69.3724 0.988342 65.5779 0.988342C61.212 0.988342 57.7838 2.56604 55.2951 5.72164L47.4601 15.8652L39.6266 5.72164C37.1369 2.56604 33.7096 0.988342 29.3433 0.988342C25.5481 0.988342 22.314 2.32982 19.6419 5.01472C16.9697 7.6994 15.633 10.9474 15.633 14.7591C15.633 18.5708 16.9688 21.8196 19.6419 24.5034C22.3146 27.1875 25.5481 28.5298 29.3433 28.5298H2.41187C1.84011 28.5298 1.37126 28.7141 1.00402 29.0828C0.637216 29.4521 0.453491 29.9236 0.453491 30.497V50.1707C0.453491 50.7439 0.636573 51.2157 1.00402 51.5839C1.37104 51.9523 1.84075 52.1364 2.41187 52.1364H8.28806V77.712C8.28806 79.3523 8.85939 80.745 10.002 81.8914C11.1438 83.0396 12.5313 83.6128 14.164 83.6128H80.7571C82.3903 83.6128 83.7769 83.0396 84.9198 81.8914C86.0614 80.7442 86.6338 79.3508 86.6338 77.712V52.1364H92.5072C93.0794 52.1364 93.5489 51.9523 93.9157 51.5839C94.2825 51.2155 94.4651 50.7439 94.4651 50.1707V30.497C94.466 29.9236 94.284 29.4521 93.9172 29.0828ZM61.3552 10.7628C62.4159 9.49285 63.8232 8.85764 65.5779 8.85764C67.211 8.85764 68.5983 9.43084 69.7407 10.5785C70.8821 11.7256 71.453 13.1194 71.453 14.7589C71.453 16.3984 70.8806 17.7922 69.7407 18.9392C68.5976 20.0869 67.211 20.6601 65.5779 20.6601H53.7031L61.3552 10.7628ZM29.3427 20.6603C27.7104 20.6603 26.3238 20.0869 25.1794 18.9394C24.0374 17.7924 23.4658 16.3986 23.4658 14.7591C23.4658 13.1196 24.0367 11.7264 25.1794 10.5787C26.322 9.43105 27.7097 8.85786 29.342 8.85786C31.0974 8.85786 32.5048 9.49221 33.5658 10.7631L41.2781 20.6605H29.3427V20.6603ZM57.2541 40.3335V69.1054V72.5474C57.2541 73.5723 56.8856 74.3608 56.1519 74.9149C55.4168 75.4683 54.4778 75.7452 53.3369 75.7452H41.5847C40.4421 75.7452 39.5037 75.4683 38.769 74.9149C38.0343 74.3608 37.6667 73.5723 37.6667 72.5474V69.1054V40.3335V28.5298H57.2541V40.3335Z" fill="white"/>
</svg>
