<svg width="130" height="27" viewBox="0 0 130 27" fill="none" xmlns="http://www.w3.org/2000/svg">
<path d="M51.044 13.43H54.194L53.132 18.74C52.484 19.232 51.728 19.61 50.864 19.874C50.012 20.126 49.112 20.252 48.164 20.252C46.892 20.252 45.776 20.024 44.816 19.568C43.868 19.1 43.13 18.446 42.602 17.606C42.086 16.766 41.828 15.8 41.828 14.708C41.828 13.256 42.164 11.96 42.836 10.82C43.508 9.668 44.45 8.768 45.662 8.12C46.874 7.472 48.266 7.148 49.838 7.148C52.334 7.148 54.164 7.922 55.328 9.47L52.772 11.486C52.364 10.982 51.914 10.628 51.422 10.424C50.93 10.208 50.348 10.1 49.676 10.1C48.824 10.1 48.074 10.292 47.426 10.676C46.79 11.048 46.298 11.564 45.95 12.224C45.602 12.884 45.428 13.634 45.428 14.474C45.428 15.338 45.71 16.028 46.274 16.544C46.838 17.048 47.63 17.3 48.65 17.3C49.262 17.3 49.82 17.198 50.324 16.994L51.044 13.43ZM59.7656 10.226H55.8956L56.4716 7.4H67.7576L67.1816 10.226H63.3296L61.3676 20H57.8036L59.7656 10.226ZM75.0045 17.552H69.6405L68.1825 20H64.4205L72.5025 7.4H76.0125L79.0545 20H75.5085L75.0045 17.552ZM74.4645 14.924L73.6185 10.838L71.2065 14.924H74.4645ZM85.6089 10.154L85.0509 12.926H90.6129L90.0549 15.68H84.5109L83.6469 20H80.0829L82.6029 7.4H92.4669L91.9089 10.154H85.6089ZM100.212 17.552H94.8476L93.3896 20H89.6276L97.7096 7.4H101.22L104.262 20H100.716L100.212 17.552ZM99.6716 14.924L98.8256 10.838L96.4136 14.924H99.6716ZM109.988 20.252C108.944 20.252 107.954 20.126 107.018 19.874C106.082 19.622 105.32 19.298 104.732 18.902L106.136 16.238C106.772 16.646 107.45 16.958 108.17 17.174C108.89 17.378 109.61 17.48 110.33 17.48C111.014 17.48 111.542 17.384 111.914 17.192C112.298 16.988 112.49 16.712 112.49 16.364C112.49 16.064 112.316 15.83 111.968 15.662C111.632 15.494 111.104 15.314 110.384 15.122C109.568 14.906 108.89 14.69 108.35 14.474C107.81 14.246 107.342 13.904 106.946 13.448C106.562 12.992 106.37 12.392 106.37 11.648C106.37 10.748 106.616 9.962 107.108 9.29C107.6 8.606 108.302 8.078 109.214 7.706C110.126 7.334 111.194 7.148 112.418 7.148C113.318 7.148 114.158 7.244 114.938 7.436C115.718 7.616 116.39 7.88 116.954 8.228L115.658 10.874C115.166 10.562 114.62 10.328 114.02 10.172C113.432 10.004 112.826 9.92 112.202 9.92C111.494 9.92 110.936 10.034 110.528 10.262C110.132 10.49 109.934 10.784 109.934 11.144C109.934 11.456 110.108 11.696 110.456 11.864C110.804 12.032 111.344 12.212 112.076 12.404C112.892 12.608 113.564 12.818 114.092 13.034C114.632 13.25 115.094 13.58 115.478 14.024C115.862 14.468 116.054 15.05 116.054 15.77C116.054 16.658 115.802 17.444 115.298 18.128C114.806 18.8 114.098 19.322 113.174 19.694C112.262 20.066 111.2 20.252 109.988 20.252ZM121.394 10.226H117.524L118.1 7.4H129.386L128.81 10.226H124.958L122.996 20H119.432L121.394 10.226Z" fill="white"/>
<path d="M26 24C31.5228 24 36 19.5228 36 14C36 8.47715 31.5228 4 26 4C20.4772 4 16 8.47715 16 14C16 19.5228 20.4772 24 26 24Z" stroke="white" stroke-width="3" stroke-linecap="round" stroke-linejoin="round"/>
<path d="M26 8V14L30 16" stroke="white" stroke-width="3" stroke-linecap="round" stroke-linejoin="round"/>
<path d="M19 6H6C5.44772 6 5 6.44772 5 7C5 7.55228 5.44772 8 6 8H19V6Z" fill="white"/>
<path d="M17 11H1C0.447716 11 0 11.4477 0 12C0 12.5523 0.447716 13 1 13H17V11Z" fill="white"/>
<rect width="7" height="2" rx="1" transform="matrix(-1 0 0 1 14 22)" fill="white"/>
<path d="M17 17H3C2.44771 17 2 17.4477 2 18C2 18.5523 2.44772 19 3 19H17V17Z" fill="white"/>
</svg>
