<?xml version="1.0" encoding="utf-8"?><svg width="95" height="84" fill="none" xmlns="http://www.w3.org/2000/svg" viewBox="0 0 95 84"><path d="M93.917 29.083c-.366-.369-.835-.553-1.408-.553H65.578c3.794 0 7.028-1.342 9.702-4.027 2.672-2.684 4.008-5.932 4.008-9.744 0-3.812-1.336-7.06-4.008-9.744C72.606 2.33 69.372.988 65.578.988c-4.366 0-7.794 1.578-10.283 4.734L47.46 15.865 39.627 5.722C37.137 2.566 33.71.988 29.343.988c-3.795 0-7.029 1.342-9.701 4.027-2.672 2.684-4.009 5.932-4.009 9.744 0 3.812 1.336 7.06 4.009 9.744s5.906 4.027 9.701 4.027H2.412c-.572 0-1.04.184-1.408.553-.367.37-.55.84-.55 1.414v19.674c0 .573.183 1.045.55 1.413.367.368.837.552 1.408.552h5.876v25.576c0 1.64.571 3.033 1.714 4.18 1.142 1.148 2.53 1.72 4.162 1.72h66.593c1.633 0 3.02-.572 4.163-1.72 1.141-1.148 1.714-2.541 1.714-4.18V52.136h5.873c.572 0 1.042-.184 1.409-.552.367-.369.55-.84.55-1.413V30.497c0-.573-.182-1.045-.549-1.414zm-32.562-18.32c1.06-1.27 2.468-1.905 4.223-1.905 1.633 0 3.02.573 4.163 1.72 1.141 1.148 1.712 2.541 1.712 4.18 0 1.64-.572 3.034-1.712 4.181-1.143 1.148-2.53 1.721-4.163 1.721H53.703l7.652-9.897zM29.343 20.66c-1.633 0-3.02-.573-4.164-1.72-1.142-1.148-1.713-2.541-1.713-4.18 0-1.64.57-3.034 1.713-4.181 1.143-1.148 2.53-1.721 4.163-1.721 1.755 0 3.163.634 4.224 1.905l7.712 9.897H29.343zm27.911 19.674v32.213c0 1.025-.368 1.814-1.102 2.368-.735.553-1.674.83-2.815.83H41.585c-1.143 0-2.081-.277-2.816-.83-.735-.554-1.102-1.343-1.102-2.368V28.53h19.587v11.803z" fill="#fff"/></svg>